<svg xmlns="http://www.w3.org/2000/svg" viewBox="0 0 512 512">
  <rect width="512" height="512" rx="96" fill="#6B2D8B"/>
  <!-- Clipboard base -->
  <rect x="136" y="120" width="240" height="300" rx="20" fill="#fff" opacity="0.95"/>
  <!-- Clipboard clip -->
  <rect x="206" y="96" width="100" height="48" rx="12" fill="#4A1D6B"/>
  <circle cx="256" cy="120" r="10" fill="#F7F7FA"/>
  <!-- Lines (menu items) -->
  <rect x="176" y="188" width="160" height="12" rx="6" fill="#6B2D8B" opacity="0.25"/>
  <rect x="176" y="220" width="120" height="12" rx="6" fill="#6B2D8B" opacity="0.20"/>
  <rect x="176" y="252" width="140" height="12" rx="6" fill="#6B2D8B" opacity="0.25"/>
  <rect x="176" y="284" width="100" height="12" rx="6" fill="#6B2D8B" opacity="0.20"/>
  <rect x="176" y="316" width="150" height="12" rx="6" fill="#6B2D8B" opacity="0.25"/>
  <!-- Fork icon -->
  <g transform="translate(256, 374)" fill="none" stroke="#6B2D8B" stroke-width="4" stroke-linecap="round" opacity="0.4">
    <line x1="-12" y1="-18" x2="-12" y2="18"/>
    <line x1="0" y1="-18" x2="0" y2="18"/>
    <line x1="12" y1="-18" x2="12" y2="18"/>
    <path d="M-12 0 Q-12 8, 0 8 Q12 8, 12 0"/>
    <line x1="0" y1="8" x2="0" y2="18"/>
  </g>
</svg>
