<svg xmlns="http://www.w3.org/2000/svg" viewBox="0 0 64 64" role="img" aria-label="LunchHunter PE">
  <!-- Brand fialová podloga, rounded square (PWA / favicon) -->
  <rect width="64" height="64" rx="12" fill="#6B2D8B"/>
  <!-- Lucide utensils-crossed (24×24 viewBox), scale 1.5 a translate (14, 14)
       → kresba v rozsahu 14–50 (8 px margin každá strana). Bílý stroke. -->
  <g transform="translate(14 14) scale(1.5)" fill="none" stroke="#ffffff" stroke-width="1.6" stroke-linecap="round" stroke-linejoin="round">
    <path d="m16 2-2.3 2.3a3 3 0 0 0 0 4.2l1.8 1.8a3 3 0 0 0 4.2 0L22 8"/>
    <path d="M15 15 3.3 3.3a4.2 4.2 0 0 0 0 6l7.3 7.3c.7.7 2 .7 2.8 0L15 15Zm0 0 7 7"/>
    <path d="m2.1 21.8 6.4-6.3"/>
    <path d="m19 5-7 7"/>
  </g>
</svg>
